<svg xmlns="http://www.w3.org/2000/svg" data-name="Layer 1" viewBox="0 0 100 125" x="0px" y="0px"><title>a</title><path d="M92.063,84.515h-.711v-.808a17.757,17.757,0,0,0-12.8-17V64.752a2.186,2.186,0,0,0-2.3-2.045H71.051a2.186,2.186,0,0,0-2.3,2.045v1.957a17.757,17.757,0,0,0-12.794,17v.808h-.711a2.94,2.94,0,0,0-2.937,2.937v2.609A2.94,2.94,0,0,0,55.246,93H92.063A2.94,2.94,0,0,0,95,90.061V87.452A2.94,2.94,0,0,0,92.063,84.515Zm-33.711-.808a15.452,15.452,0,0,1,10.4-14.487V74.1a1.2,1.2,0,0,0,2.4,0v-9h5.015v9a1.2,1.2,0,1,0,2.395,0V69.22a15.45,15.45,0,0,1,10.4,14.487v.808h-30.6Zm34.253,6.354a.55.55,0,0,1-.542.542H55.246a.549.549,0,0,1-.542-.542V87.452a.549.549,0,0,1,.542-.542H92.063a.55.55,0,0,1,.542.542ZM40.721,81.925a1.2,1.2,0,0,0-.847-.351h-2.55l-2.172-49.09h37.2v3.2l-6.19,6.6c-.008.008-.015.018-.023.027l-.042.049-.033.045c-.012.017-.024.033-.035.05L66,42.5c-.01.017-.019.034-.028.051s-.017.035-.025.053-.016.036-.023.054-.014.036-.02.054l-.018.057c-.005.019-.01.037-.014.056a.541.541,0,0,0-.012.058.558.558,0,0,0-.009.059c0,.019,0,.037-.007.056s0,.043,0,.064,0,.024,0,.036V54.056a1.2,1.2,0,0,0,1.2,1.2H80.06a1.2,1.2,0,0,0,1.2-1.2V43.1c0-.012,0-.024,0-.036s0-.042,0-.063,0-.038-.006-.057l-.009-.059-.012-.058c0-.019-.009-.037-.015-.056s-.011-.038-.018-.057-.012-.036-.019-.054-.015-.036-.023-.054-.017-.035-.026-.053-.018-.034-.028-.051l-.03-.05c-.011-.017-.023-.033-.035-.05s-.021-.03-.033-.045-.028-.033-.042-.049-.015-.019-.023-.027l-6.189-6.6v-3.2H85.622a1.2,1.2,0,0,0,1.009-1.843l-3.773-5.907a1.2,1.2,0,0,0-1.009-.553H73.4l-39.168-12.5-.212-4.8a1.2,1.2,0,0,0-1.2-1.145H25.15a1.2,1.2,0,0,0-1.2,1.145l-.218,4.933L6.476,19.539c-.036.015-.07.031-.1.048l-.035.015c-.016.007-.03.016-.045.023A2.365,2.365,0,0,0,5,21.729V33.17a2.367,2.367,0,0,0,2.364,2.364H18.805a2.367,2.367,0,0,0,2.364-2.364v-.686h1.652l-2.172,49.09H18.1a1.194,1.194,0,0,0-.846.351L12.1,87.073a1.194,1.194,0,0,0-.351.846v5.148a1.2,1.2,0,0,0,1.2,1.2H45.022a1.2,1.2,0,0,0,1.2-1.2V87.919a1.194,1.194,0,0,0-.351-.846ZM73.546,37.9l3.748,4H69.8Zm5.316,14.955H68.231V44.3H78.862ZM33.717,54.231l-7.739-9.177,6.967-8.262ZM24.572,47.1l8.157,9.674L23.76,65.46Zm9.353,11.85L34.684,76.1l-9.87-8.33Zm31.6-34.771H34.785l-.44-9.954ZM18.805,19.365H12.728L23.617,14.49l-.429,9.691H21.169V21.729A2.367,2.367,0,0,0,18.805,19.365Zm7.155-3.636L32.322,22.7l.065,1.484h-6.8Zm5.717-7.6.479,10.832L26.109,12.34,26.3,8.131Zm-12.9,25.007H7.4V21.76H18.773Zm2.4-6.562H81.192l2.244,3.512H21.169Zm11.586,5.908.034.777-8.026,9.518.455-10.3Zm-9.19,37.37,11.263,9.5.1,2.215H23.047ZM43.824,91.869H14.148V88.416l4.446-4.446H39.378l4.446,4.446Z"/><text x="0" y="115" fill="#000000" font-size="5px" font-weight="bold" font-family="'Helvetica Neue', Helvetica, Arial-Unicode, Arial, Sans-serif">Created by Orange Cat</text><text x="0" y="120" fill="#000000" font-size="5px" font-weight="bold" font-family="'Helvetica Neue', Helvetica, Arial-Unicode, Arial, Sans-serif">from the Noun Project</text></svg>