<svg xmlns="http://www.w3.org/2000/svg" viewBox="0 0 128 160" x="0px" y="0px"><title>transgenics, cell, biochemistry, chromosome, dna, genetics, sciences icon</title><g data-name="Layer 19"><path d="M30.58,78.46c-.15-.78-.31-1.55-.48-2.33l2.33.48a44.88,44.88,0,0,0,4.92.66,19.52,19.52,0,0,0,5.4-.29A13.57,13.57,0,0,0,47,75.41,14.3,14.3,0,0,0,50,73l.18-.2a14,14,0,0,0,3.86-7.64,21.48,21.48,0,0,0,.13-5.57c-.13-1.32-.34-2.7-.62-4.2-.15-.78-.31-1.55-.47-2.32l2.34.48a44.19,44.19,0,0,0,4.61.65A20.2,20.2,0,0,0,65.53,54a13.78,13.78,0,0,0,4.26-1.52A14.55,14.55,0,0,0,73.06,50a14.27,14.27,0,0,0,2.48-3.3,13.81,13.81,0,0,0,1.51-4.28A20.51,20.51,0,0,0,77.25,37a44.79,44.79,0,0,0-.63-4.53c-.15-.77-.32-1.54-.48-2.32.78.16,1.55.33,2.33.48a43.3,43.3,0,0,0,4.56.65A20,20,0,0,0,88.51,31a13.25,13.25,0,0,0,4.27-1.51A14.19,14.19,0,0,0,96.06,27,.75.75,0,0,0,95,26a12.73,12.73,0,0,1-3,2.24,11.81,11.81,0,0,1-3.81,1.35,18.51,18.51,0,0,1-5.09.19,41.88,41.88,0,0,1-4.4-.62c-1-.19-2-.39-2.94-.6-.21-1-.42-2-.6-2.94a42.82,42.82,0,0,1-.63-4.42,18.63,18.63,0,0,1,.2-5.09,11.86,11.86,0,0,1,1.35-3.82A12.76,12.76,0,0,1,78.35,9.3a.75.75,0,0,0-1.06-1.06,14.2,14.2,0,0,0-2.48,3.28,13.28,13.28,0,0,0-1.52,4.27,20.08,20.08,0,0,0-.22,5.48,44.41,44.41,0,0,0,.65,4.57c.15.78.31,1.55.48,2.33l-2.33-.48a44.94,44.94,0,0,0-4.51-.63,20.32,20.32,0,0,0-5.49.19,13.8,13.8,0,0,0-4.27,1.5,14.25,14.25,0,0,0-3.32,2.5,14.09,14.09,0,0,0-2.47,3.26,13.51,13.51,0,0,0-1.53,4.26,20.22,20.22,0,0,0-.22,5.46,44.91,44.91,0,0,0,.65,4.62c.15.78.31,1.55.48,2.33l-2.32-.47c-1.51-.29-2.88-.49-4.21-.62a21.44,21.44,0,0,0-5.56.13,14,14,0,0,0-4.34,1.44A13.81,13.81,0,0,0,31.51,54a2.65,2.65,0,0,0-.25.23,14.29,14.29,0,0,0-2.35,3.06,13.59,13.59,0,0,0-1.59,4.21A19.52,19.52,0,0,0,27,67a45.06,45.06,0,0,0,.67,4.94c.15.77.32,1.54.48,2.32-.78-.16-1.55-.33-2.33-.48a44.27,44.27,0,0,0-4.56-.65,20,20,0,0,0-5.48.21,13.28,13.28,0,0,0-4.27,1.51,14.21,14.21,0,0,0-3.29,2.49A.75.75,0,1,0,9.3,78.35a12.76,12.76,0,0,1,3-2.24,11.85,11.85,0,0,1,3.81-1.35,18.59,18.59,0,0,1,5.09-.19,42.72,42.72,0,0,1,4.41.63c1,.19,2,.39,2.94.6.21,1,.42,2,.6,2.94a42.57,42.57,0,0,1,.63,4.41,18.63,18.63,0,0,1-.2,5.09,11.88,11.88,0,0,1-1.35,3.82A12.75,12.75,0,0,1,26,95,.75.75,0,1,0,27,96.06a14.21,14.21,0,0,0,2.48-3.28A13.3,13.3,0,0,0,31,88.51,20.07,20.07,0,0,0,31.23,83,43.88,43.88,0,0,0,30.58,78.46ZM51.75,39a12.05,12.05,0,0,1,1.37-3.81,13.39,13.39,0,0,1,5.19-5.17,12.37,12.37,0,0,1,3.82-1.34,19,19,0,0,1,5.1-.17,43.35,43.35,0,0,1,4.35.61l2.94.61c.21,1,.42,2,.61,2.93a43.19,43.19,0,0,1,.61,4.37,19.09,19.09,0,0,1-.17,5.09A12.38,12.38,0,0,1,74.23,46,12.83,12.83,0,0,1,72,49a13.05,13.05,0,0,1-2.93,2.23,12.32,12.32,0,0,1-3.81,1.36,18.68,18.68,0,0,1-5.07.19,43,43,0,0,1-4.45-.62c-1-.19-1.95-.39-2.93-.6h0c-.21-1-.41-2-.6-2.94a43.37,43.37,0,0,1-.63-4.46A18.75,18.75,0,0,1,51.75,39Zm-23,22.79a12.11,12.11,0,0,1,1.42-3.77,12.81,12.81,0,0,1,2.12-2.75l.17-.15a12.45,12.45,0,0,1,6.86-3.48,20.1,20.1,0,0,1,5.17-.12c1.27.13,2.6.33,4.06.6,1,.19,2,.39,2.93.6.21,1,.41,2,.6,2.93.28,1.46.48,2.79.6,4.06A20,20,0,0,1,52.6,65a12.45,12.45,0,0,1-3.48,6.86l-.07.08L49,72a12.85,12.85,0,0,1-2.75,2.12,12.11,12.11,0,0,1-3.76,1.42,18.1,18.1,0,0,1-5,.26,43.47,43.47,0,0,1-4.74-.64l-2.94-.61c-.21-1-.42-2-.61-2.93a43.61,43.61,0,0,1-.64-4.76A18,18,0,0,1,28.78,61.84Z"/><path d="M72.19,33.76a.75.75,0,1,0,1.06-1.06L71.6,31a.75.75,0,0,0-1.06,1.06Z"/><path d="M72.85,39.9a.75.75,0,1,0,1.06-1.06l-8.45-8.45a.75.75,0,0,0-1.06,1.06Z"/><path d="M71.94,44.46A.75.75,0,1,0,73,43.4L60.9,31.3a.75.75,0,0,0-1.06,1.06Z"/><path d="M69.73,47.74a.75.75,0,1,0,1.06-1.06L57.63,33.51a.75.75,0,0,0-1.06,1.06Z"/><path d="M66.48,50a.75.75,0,1,0,1.06-1.06L55.4,36.76a.75.75,0,0,0-1.06,1.06Z"/><path d="M61.93,50.89A.75.75,0,1,0,63,49.83l-8.52-8.52a.75.75,0,0,0-1.06,1.06Z"/><path d="M55.11,47.42A.75.75,0,0,0,54,48.48l1.77,1.77a.75.75,0,1,0,1.06-1.06Z"/><path d="M49.11,56.42a.75.75,0,1,0,1.06-1.06l-1.23-1.23a.75.75,0,0,0-1.06,1.06Z"/><path d="M49.83,62.63a.75.75,0,1,0,1.06-1.06l-8.16-8.16a.75.75,0,0,0-1.06,1.06Z"/><path d="M49,67.29a.75.75,0,0,0,1.06-1.06l-12-12A.75.75,0,0,0,37,55.29Z"/><path d="M46.86,70.61a.75.75,0,0,0,1.06-1.06L34.76,56.38a.75.75,0,0,0-1.06,1.06Z"/><path d="M26.7,80.06a.75.75,0,0,0,.53-1.28l-1.71-1.71a.75.75,0,0,0-1.06,1.06l1.71,1.71A.75.75,0,0,0,26.7,80.06Z"/><path d="M18.33,76.43a.75.75,0,0,0,0,1.06L26.81,86a.75.75,0,1,0,1.06-1.06l-8.48-8.48A.75.75,0,0,0,18.33,76.43Z"/><path d="M26.43,90.75A.75.75,0,0,0,27,89.47L14.83,77.34a.75.75,0,1,0-1.06,1.06L25.9,90.54A.75.75,0,0,0,26.43,90.75Z"/><path d="M77.34,13.77a.75.75,0,0,0,0,1.06L89.47,27a.75.75,0,0,0,1.06-1.06L78.4,13.77A.75.75,0,0,0,77.34,13.77Z"/><path d="M85.45,28.1A.75.75,0,0,0,86,26.82l-8.49-8.49a.75.75,0,0,0-1.06,1.06l8.49,8.49A.75.75,0,0,0,85.45,28.1Z"/><path d="M77.07,24.46a.75.75,0,0,0,0,1.06l1.71,1.71a.75.75,0,0,0,1.06-1.06l-1.71-1.71A.75.75,0,0,0,77.07,24.46Z"/><path d="M43.67,72.89a.75.75,0,0,0,1.06-1.06L32.47,59.58a.75.75,0,0,0-1.06,1.06Z"/><path d="M39.19,73.9a.75.75,0,0,0,1.06-1.06l-8.78-8.78a.75.75,0,1,0-1.06,1.06Z"/><path d="M32,70.09A.75.75,0,0,0,31,71.15l2.18,2.18a.75.75,0,1,0,1.06-1.06Z"/><path d="M119.76,49.65a.75.75,0,0,0-1.06,0,12.78,12.78,0,0,1-3,2.24,11.86,11.86,0,0,1-3.81,1.35,18.55,18.55,0,0,1-5.09.19,42.64,42.64,0,0,1-4.41-.62c-1-.19-2-.39-2.94-.6-.21-1-.42-2-.6-2.94a42,42,0,0,1-.63-4.42,18.59,18.59,0,0,1,.2-5.09,11.83,11.83,0,0,1,1.36-3.82A12.73,12.73,0,0,1,102,33,.75.75,0,0,0,101,31.94a14.19,14.19,0,0,0-2.48,3.28A13.26,13.26,0,0,0,97,39.49,20.05,20.05,0,0,0,96.77,45a43.46,43.46,0,0,0,.65,4.57c.15.78.31,1.55.48,2.33l-2.33-.48a44.7,44.7,0,0,0-4.52-.63,20.45,20.45,0,0,0-5.49.19,13.79,13.79,0,0,0-4.27,1.5A14.32,14.32,0,0,0,78,55a14.12,14.12,0,0,0-2.47,3.26A13.5,13.5,0,0,0,74,62.47a20.23,20.23,0,0,0-.22,5.47,44.44,44.44,0,0,0,.65,4.62c.15.78.31,1.55.48,2.33l-2.32-.47c-1.5-.29-2.87-.49-4.21-.62a21.54,21.54,0,0,0-5.56.13,14,14,0,0,0-4.34,1.44,14.17,14.17,0,0,0-3.3,2.42L55,78A14.24,14.24,0,0,0,52.6,81,13.57,13.57,0,0,0,51,85.24a19.52,19.52,0,0,0-.29,5.4,44.93,44.93,0,0,0,.67,4.94c.15.77.32,1.54.48,2.32-.78-.16-1.55-.33-2.33-.48A43.31,43.31,0,0,0,45,96.77a20,20,0,0,0-5.48.21,13.24,13.24,0,0,0-4.27,1.51A14.2,14.2,0,0,0,31.94,101,.75.75,0,0,0,33,102a12.71,12.71,0,0,1,3-2.24,11.83,11.83,0,0,1,3.81-1.35,18.56,18.56,0,0,1,5.09-.19,41.87,41.87,0,0,1,4.4.63c1,.19,2,.39,2.94.6.21,1,.42,2,.6,2.94a42.61,42.61,0,0,1,.63,4.41,18.63,18.63,0,0,1-.2,5.09,11.86,11.86,0,0,1-1.36,3.82,12.73,12.73,0,0,1-2.23,2.94.75.75,0,1,0,1.06,1.06,14.19,14.19,0,0,0,2.48-3.28,13.31,13.31,0,0,0,1.52-4.27,20.07,20.07,0,0,0,.22-5.48,44,44,0,0,0-.65-4.57c-.15-.78-.31-1.55-.48-2.33l2.33.48A44.88,44.88,0,0,0,61,101a19.45,19.45,0,0,0,5.4-.29,13.59,13.59,0,0,0,4.21-1.58,14.38,14.38,0,0,0,3.07-2.36l.19-.21a14.2,14.2,0,0,0,2.42-3.3,14,14,0,0,0,1.44-4.33,21.52,21.52,0,0,0,.13-5.57c-.13-1.31-.34-2.69-.62-4.2-.15-.78-.31-1.55-.47-2.32.78.16,1.55.33,2.34.48a44.38,44.38,0,0,0,4.61.65,20.26,20.26,0,0,0,5.47-.21,13.82,13.82,0,0,0,4.26-1.52,14.59,14.59,0,0,0,3.28-2.49,14.18,14.18,0,0,0,2.48-3.3,13.79,13.79,0,0,0,1.51-4.28,20.45,20.45,0,0,0,.19-5.49,45.07,45.07,0,0,0-.63-4.53c-.15-.77-.32-1.54-.48-2.32.78.16,1.55.33,2.33.48a44.23,44.23,0,0,0,4.56.65,20.08,20.08,0,0,0,5.48-.21,13.28,13.28,0,0,0,4.26-1.51,14.22,14.22,0,0,0,3.29-2.49A.75.75,0,0,0,119.76,49.65Zm-43.46,39A12.54,12.54,0,0,1,75,92.54a12.67,12.67,0,0,1-2.19,3l-.07.08-.09.09a12.91,12.91,0,0,1-2.75,2.12,12.11,12.11,0,0,1-3.76,1.41,18,18,0,0,1-5,.26,43.47,43.47,0,0,1-4.74-.64l-2.94-.61c-.21-1-.42-2-.61-2.93a43.48,43.48,0,0,1-.64-4.76,18,18,0,0,1,.26-5,12.09,12.09,0,0,1,1.42-3.77A12.8,12.8,0,0,1,56,79l.08-.08.08-.07A12.46,12.46,0,0,1,63,75.4a20,20,0,0,1,5.17-.11c1.28.13,2.61.33,4.07.6,1,.19,2,.39,2.93.6.21,1,.41,2,.6,2.93.28,1.47.48,2.8.6,4.06A20.05,20.05,0,0,1,76.3,88.65Zm23-22.79a12.35,12.35,0,0,1-1.35,3.83,12.73,12.73,0,0,1-2.24,3,13,13,0,0,1-2.93,2.22,12.3,12.3,0,0,1-3.81,1.36,18.69,18.69,0,0,1-5.07.19,43.27,43.27,0,0,1-4.45-.63c-1-.19-2-.4-2.94-.6h0c-.21-1-.41-2-.6-2.93a43.19,43.19,0,0,1-.63-4.46,18.75,18.75,0,0,1,.2-5.07,12,12,0,0,1,1.37-3.81A12.68,12.68,0,0,1,79,56a12.81,12.81,0,0,1,3-2.23,12.36,12.36,0,0,1,3.82-1.34,19.07,19.07,0,0,1,5.1-.17,43.1,43.1,0,0,1,4.35.61l2.94.61c.21,1,.42,2,.61,2.93a43.48,43.48,0,0,1,.61,4.37A19.05,19.05,0,0,1,99.28,65.86Z"/><path d="M95.89,57.46A.75.75,0,1,0,97,56.4L95.3,54.75a.75.75,0,0,0-1.06,1.06Z"/><path d="M89.16,54.09a.75.75,0,0,0-1.06,1.06l8.45,8.45a.75.75,0,1,0,1.06-1.06Z"/><path d="M84.6,55a.75.75,0,0,0-1.06,1.06l12.1,12.1A.75.75,0,1,0,96.7,67.1Z"/><path d="M81.32,57.21a.75.75,0,0,0-1.06,1.06L93.42,71.43a.75.75,0,0,0,1.06-1.06Z"/><path d="M79.09,60.46A.75.75,0,0,0,78,61.52L90.18,73.66a.75.75,0,0,0,1.06-1.06Z"/><path d="M78.17,65a.75.75,0,0,0-1.06,1.06l8.52,8.52a.75.75,0,0,0,1.06-1.06Z"/><path d="M78.8,71.12a.75.75,0,0,0-1.06,1.06L79.52,74a.75.75,0,1,0,1.06-1.06Z"/><path d="M72.81,80.12a.75.75,0,1,0,1.06-1.06l-1.23-1.23a.75.75,0,0,0-1.06,1.06Z"/><path d="M66.43,77.11a.75.75,0,0,0-1.06,1.06l8.16,8.16a.75.75,0,0,0,1.06-1.06Z"/><path d="M61.77,77.93A.75.75,0,0,0,60.71,79l12,12a.75.75,0,1,0,1.06-1.06Z"/><path d="M58.45,80.08a.75.75,0,0,0-1.06,1.06L70.56,94.3a.75.75,0,0,0,1.06-1.06Z"/><path d="M50.4,103.76a.75.75,0,0,0,.53-1.28l-1.71-1.71a.75.75,0,0,0-1.06,1.06l1.71,1.71A.75.75,0,0,0,50.4,103.76Z"/><path d="M42,100.13a.75.75,0,0,0,0,1.06l8.48,8.48a.75.75,0,1,0,1.06-1.06l-8.48-8.48A.75.75,0,0,0,42,100.13Z"/><path d="M50.13,114.45a.75.75,0,0,0,.53-1.28L38.53,101a.75.75,0,0,0-1.06,1.06L49.6,114.23A.75.75,0,0,0,50.13,114.45Z"/><path d="M101,37.46a.75.75,0,0,0,0,1.06l12.13,12.13a.75.75,0,1,0,1.06-1.06L102.1,37.46A.75.75,0,0,0,101,37.46Z"/><path d="M109.14,51.79a.75.75,0,0,0,.53-1.28L101.18,42a.75.75,0,1,0-1.06,1.06l8.49,8.49A.75.75,0,0,0,109.14,51.79Z"/><path d="M100.76,48.16a.75.75,0,0,0,0,1.06l1.71,1.71a.75.75,0,0,0,1.06-1.06l-1.71-1.71A.75.75,0,0,0,100.76,48.16Z"/><path d="M56.17,83.27a.75.75,0,0,0-1.06,1.06L67.36,96.59a.75.75,0,0,0,1.06-1.06Z"/><path d="M55.16,87.75a.75.75,0,0,0-1.06,1.06l8.78,8.78a.75.75,0,0,0,1.06-1.06Z"/><path d="M55.72,93.79a.75.75,0,0,0-1.06,1.06L56.85,97A.75.75,0,1,0,57.91,96Z"/></g><text x="0" y="143" fill="#000000" font-size="5px" font-weight="bold" font-family="'Helvetica Neue', Helvetica, Arial-Unicode, Arial, Sans-serif">Created by Droplabs</text><text x="0" y="148" fill="#000000" font-size="5px" font-weight="bold" font-family="'Helvetica Neue', Helvetica, Arial-Unicode, Arial, Sans-serif">from the Noun Project</text></svg>