<svg xmlns="http://www.w3.org/2000/svg" xmlns:xlink="http://www.w3.org/1999/xlink" version="1.1" x="0px" y="0px" viewBox="0 0 64 80" style="enable-background:new 0 0 64 64;" xml:space="preserve"><style type="text/css">
	.st0{fill:#2E79BE;}
	.st1{fill:#2D3E50;}
</style><g><path d="M24.8,42.3c-2.3,0.7-3.6,2.7-3.4,5.1c0.3,2.3,2.1,4.1,4.5,4.3c1.5,0.1,2.7-0.4,4-1.7c2.9-2.9,11-10.5,13.7-13   c0.2-0.2,0-0.5-0.3-0.5C39.5,37.6,27.6,41.5,24.8,42.3z"/><path d="M58.7,27.3c-0.5-0.9-1.1-1.7-1.8-2.6c-4.5-6-11.2-10.3-19.1-11.8c-17-3.2-33.4,7.9-36.6,24.9c-0.8,4.1-0.7,8.3,0.1,12.4   l0.3,1.5l4.7-1l-0.2-1.4c-0.6-4.2,0-8.5,1.5-12.5c1.5-3.8,3.8-7.2,6.9-9.9c1.4-1.2,3-2.3,4.9-3.2c1.7-0.8,3.5-1.5,5.4-1.9   c1.8-0.4,3.7-0.6,5.5-0.5c1.8,0.1,3.6,0.4,5.4,0.8c3.4,1,6.5,2.8,9,5.2c1.1,1.1,2.1,2.3,2.9,3.6l0,0l1.5,2.7l0,0   c0.3,0.7,0.6,1.4,0.8,2.1c0.5,1.5,0.7,3.1,0.8,4.7c0.1,1.5,0,3.1-0.3,4.6c-0.2,0.8-0.4,1.7-0.7,2.5l-0.6,1.7l13.1,2.5l0.3-1.5   c0-0.2,0.1-0.4,0.1-0.6C64.3,41.5,62.6,33.7,58.7,27.3z M53.2,46.7c0.1-0.4,0.2-0.8,0.3-1.2c0.3-1.8,0.5-3.6,0.4-5.4   c-0.1-1.9-0.4-3.7-1-5.4c-0.3-1-0.7-1.9-1.1-2.9l4.4-2.9c3.4,5.5,4.8,12.2,3.8,19L53.2,46.7z"/></g><text x="0" y="79" fill="#000000" font-size="5px" font-weight="bold" font-family="'Helvetica Neue', Helvetica, Arial-Unicode, Arial, Sans-serif">Created by Delwar Hossain</text><text x="0" y="84" fill="#000000" font-size="5px" font-weight="bold" font-family="'Helvetica Neue', Helvetica, Arial-Unicode, Arial, Sans-serif">from the Noun Project</text></svg>