<svg xmlns="http://www.w3.org/2000/svg" xmlns:xlink="http://www.w3.org/1999/xlink" version="1.1" x="0px" y="0px" viewBox="0 0 100 125" enable-background="new 0 0 100 100" xml:space="preserve"><path d="M35.362,35.396l16.08,16.119c2.212,2.21,4.575,3.322,6.86,3.322c2.016,0,3.972-0.865,5.71-2.604  c3.65-3.649,3.35-8.313-0.809-12.475L49.172,25.794c-0.587-0.585-1.538-0.582-2.122,0.005c-0.584,0.587-0.583,1.536,0.005,2.121  l14.028,13.962c2.997,3,3.269,5.77,0.808,8.23c-3.143,3.143-6.264,1.344-8.327-0.719l-16.08-16.118  c-0.396-0.396-0.859-1.149-1-1.939c-0.167-0.937,0.127-1.768,0.899-2.54c1.99-1.992,3.764-0.651,4.432,0.015l16.151,16.193  c0.211,0.21,0.771,0.768,0.772,1.174c0,0.239-0.226,0.516-0.416,0.706c-0.232,0.232-0.352,0.243-0.6,0.149  c-0.209-0.078-0.561-0.274-1.045-0.759l-16.124-16.11c-0.585-0.585-1.536-0.586-2.121,0.001c-0.585,0.586-0.585,1.536,0.001,2.121  l16.122,16.109c0.693,0.693,1.404,1.181,2.113,1.446c1.377,0.517,2.717,0.22,3.774-0.837c0.86-0.859,1.296-1.812,1.295-2.831  c-0.002-1.652-1.162-2.805-1.652-3.293L43.937,26.69c-2.167-2.162-5.688-3.005-8.676-0.015c-1.862,1.863-1.969,3.849-1.731,5.186  C33.873,33.785,35.02,35.054,35.362,35.396z M89.35,60.338h-1.777V17.43h1.777c2.636,0,4.779-2.145,4.779-4.779  c0-2.636-2.144-4.779-4.779-4.779H51.5V4.452c0-0.828-0.672-1.5-1.5-1.5s-1.5,0.672-1.5,1.5v3.419H10.65  c-2.636,0-4.779,2.144-4.779,4.779c0,2.635,2.144,4.779,4.779,4.779h1.779v42.908H10.65c-2.636,0-4.779,2.144-4.779,4.779  c0,2.635,2.144,4.779,4.779,4.779h35.504L19.473,94.444c-0.61,0.561-0.649,1.51-0.088,2.119c0.296,0.321,0.7,0.484,1.104,0.484  c0.363,0,0.727-0.131,1.015-0.396L48.5,71.814v23.733c0,0.828,0.672,1.5,1.5,1.5s1.5-0.672,1.5-1.5V71.814l26.997,24.837  c0.288,0.266,0.652,0.396,1.016,0.396c0.404,0,0.809-0.163,1.104-0.484c0.562-0.609,0.521-1.559-0.088-2.119L53.846,69.896H89.35  c2.636,0,4.779-2.145,4.779-4.779C94.129,62.481,91.985,60.338,89.35,60.338z M84.572,60.338H15.43V17.43h69.143V60.338z"/><text x="0" y="115" fill="#000000" font-size="5px" font-weight="bold" font-family="'Helvetica Neue', Helvetica, Arial-Unicode, Arial, Sans-serif">Created by Deepz</text><text x="0" y="120" fill="#000000" font-size="5px" font-weight="bold" font-family="'Helvetica Neue', Helvetica, Arial-Unicode, Arial, Sans-serif">from the Noun Project</text></svg>